<svg width="39" height="39" viewBox="0 0 39 39" fill="none" xmlns="http://www.w3.org/2000/svg">
<circle cx="19.5" cy="19.5" r="19.5" fill="#1C4390"/>
<path d="M19.467 20.504V20.297C19.467 19.619 19.886 19.252 20.306 18.97C20.716 18.694 21.127 18.334 21.127 17.67C21.127 16.753 20.384 16.011 19.468 16.011C18.552 16.011 17.808 16.752 17.808 17.669" stroke="#00FFD1" stroke-width="1.5" stroke-linecap="round" stroke-linejoin="round"/>
<path d="M19.466 22.843C19.383 22.843 19.316 22.91 19.317 22.993C19.317 23.076 19.384 23.143 19.467 23.143C19.55 23.143 19.617 23.076 19.617 22.993C19.617 22.91 19.55 22.843 19.466 22.843" stroke="#00FFD1" stroke-width="1.5" stroke-linecap="round" stroke-linejoin="round"/>
<path fill-rule="evenodd" clip-rule="evenodd" d="M23.863 27.316C22.562 28.046 21.064 28.467 19.467 28.467C14.496 28.467 10.467 24.438 10.467 19.467C10.467 14.496 14.496 10.467 19.467 10.467C24.438 10.467 28.467 14.496 28.467 19.467C28.467 21.065 28.046 22.563 27.316 23.863L28.467 28.467L23.863 27.316Z" stroke="white" stroke-width="1.5882" stroke-linecap="round" stroke-linejoin="round"/>
</svg>
